<svg id="Capa_1" enable-background="new 0 0 512 512" height="512" viewBox="0 0 512 512" width="512" xmlns="http://www.w3.org/2000/svg"><g><path d="m336 512h-160c-41.355 0-75-33.645-75-75v-75.666c-24.301-12.834-40-38.292-40-66.334v-100c0-107.523 87.477-195 195-195s195 87.477 195 195v100c0 28.042-15.699 53.5-40 66.334v75.666c0 41.355-33.645 75-75 75z" fill="#fff5f5"/><path d="m411 437v-75.666c24.301-12.834 40-38.292 40-66.334v-100c0-107.523-87.477-195-195-195v512h80c41.355 0 75-33.645 75-75z" fill="#dfdef5"/><path d="m256 145c-24.813 0-45-20.187-45-45s20.187-45 45-45 45 20.187 45 45-20.187 45-45 45z" fill="#09607d"/><path d="m301 100c0-24.813-20.187-45-45-45v90c24.813 0 45-20.187 45-45z" fill="#07485e"/><path d="m336 400h-5v-10c0-8.284-6.716-15-15-15s-15 6.716-15 15v10h-30v-10c0-8.284-6.716-15-15-15s-15 6.716-15 15v10h-30v-10c0-8.284-6.716-15-15-15s-15 6.716-15 15v10h-5c-8.284 0-15 6.716-15 15s6.716 15 15 15h5v10c0 8.284 6.716 15 15 15s15-6.716 15-15v-10h30v10c0 8.284 6.716 15 15 15s15-6.716 15-15v-10h30v10c0 8.284 6.716 15 15 15s15-6.716 15-15v-10h5c8.284 0 15-6.716 15-15s-6.716-15-15-15z" fill="#09607d"/><path d="m370.5 265.49c-24.281 14.019-57.577.274-75.801-31.292s-13.48-67.273 10.801-81.292 57.577-.274 75.801 31.292 13.48 67.274-10.801 81.292z" fill="#07485e"/><path d="m130.699 184.199c18.224-31.566 51.52-45.31 75.801-31.292s29.026 49.726 10.801 81.292-51.52 45.31-75.801 31.292-29.026-49.727-10.801-81.292z" fill="#09607d"/><path d="m278.361 338.321-22.361-5.59-22.361 5.59c-12.433 3.108-22.786-9.798-17.054-21.26l25.999-51.999c5.528-11.056 21.305-11.056 26.833 0l25.999 51.999c5.731 11.462-4.622 24.368-17.055 21.26z" fill="#09607d"/><path d="m256 115c-8.271 0-15-6.729-15-15s6.729-15 15-15 15 6.729 15 15-6.729 15-15 15z" fill="#ff9100"/><path d="m271 440v-10h30v10c0 8.284 6.716 15 15 15s15-6.716 15-15v-10h5c8.284 0 15-6.716 15-15s-6.716-15-15-15h-5v-10c0-8.284-6.716-15-15-15s-15 6.716-15 15v10h-30v-10c0-8.284-6.716-15-15-15v80c8.284 0 15-6.716 15-15z" fill="#07485e"/><path d="m278.362 338.321c12.433 3.108 22.786-9.798 17.054-21.26l-25.999-51.999c-2.764-5.528-8.09-8.292-13.416-8.292v75.961z" fill="#07485e"/><path d="m271 100c0-8.271-6.729-15-15-15v30c8.271 0 15-6.729 15-15z" fill="#ff6426"/></g></svg>